<?xml version="1.0" standalone="no"?>
<!DOCTYPE svg PUBLIC "-//W3C//DTD SVG 20010904//EN"
 "http://www.w3.org/TR/2001/REC-SVG-20010904/DTD/svg10.dtd">
<svg version="1.0" xmlns="http://www.w3.org/2000/svg"
 width="135.000000pt" height="135.000000pt" viewBox="0 0 135.000000 135.000000"
 preserveAspectRatio="xMidYMid meet">
<metadata>
Created by potrace 1.11, written by Peter Selinger 2001-2013
</metadata>
<g transform="translate(0.000000,135.000000) scale(0.100000,-0.100000)"
fill="#000000" stroke="none">
<path d="M322 1149 c-82 -15 -147 -76 -159 -149 -2 -17 3 -66 12 -109 9 -43
13 -94 10 -112 -6 -38 -55 -89 -84 -89 -27 0 -15 -39 14 -46 34 -8 65 -46 70
-85 3 -19 -2 -69 -11 -112 -9 -45 -13 -94 -9 -117 9 -56 59 -108 124 -130 86
-29 128 -2 52 33 -59 27 -65 56 -43 207 15 101 -22 170 -112 211 l-39 17 47
22 c83 40 120 115 104 215 -19 124 -18 150 8 178 14 15 36 30 49 33 24 6 34
28 18 37 -5 2 -27 0 -51 -4z"/>
<path d="M950 1141 c0 -10 13 -22 35 -30 56 -20 69 -49 59 -129 -4 -37 -8 -96
-8 -132 -1 -81 20 -114 99 -157 l56 -30 -40 -12 c-49 -14 -104 -68 -117 -113
-5 -18 -6 -55 -2 -83 21 -148 21 -164 5 -189 -9 -13 -32 -30 -52 -37 -69 -25
-32 -55 42 -33 60 17 98 48 124 101 21 44 22 50 10 117 -28 157 -20 193 47
225 20 9 38 22 39 29 2 6 -17 21 -42 33 -67 31 -75 70 -44 218 26 126 -39 214
-173 234 -32 5 -38 3 -38 -12z"/>
<path d="M571 1001 c-6 -11 -11 -28 -11 -39 0 -12 -11 -24 -30 -32 -74 -31
-117 -90 -100 -135 7 -20 16 -26 33 -23 15 2 21 9 19 21 -2 9 5 30 14 46 19
33 64 59 64 38 1 -18 1 -447 1 -481 l-1 -28 -42 25 c-33 19 -48 36 -64 77 -19
47 -23 50 -37 36 -12 -13 -14 -23 -6 -48 5 -18 9 -33 9 -34 0 -1 10 -12 23
-25 53 -57 118 -81 219 -80 186 2 291 68 297 186 2 53 -34 123 -76 145 l-33
17 21 19 c31 28 49 68 49 111 -1 92 -70 142 -221 159 -62 7 -64 8 -64 37 0 31
-49 37 -64 8z m203 -105 c51 -21 79 -63 73 -110 -8 -54 -40 -84 -102 -91 -27
-4 -53 -10 -57 -14 -15 -14 9 -29 56 -35 98 -14 146 -62 142 -143 -5 -83 -64
-131 -175 -140 -70 -6 -71 -5 -72 18 -1 30 -1 497 0 523 1 16 7 17 52 12 28
-3 65 -12 83 -20z"/>
</g>
</svg>
